<svg width="141" height="74" viewBox="0 0 141 74" fill="none" xmlns="http://www.w3.org/2000/svg">
<path d="M136 42C138.761 42 141 39.7614 141 37C141 34.2386 138.761 32 136 32L136 42ZM1.46446 33.4645C-0.488159 35.4171 -0.488159 38.5829 1.46446 40.5355L33.2843 72.3553C35.2369 74.308 38.4027 74.308 40.3553 72.3553C42.308 70.4027 42.308 67.2369 40.3553 65.2843L12.0711 37L40.3553 8.71574C42.308 6.76312 42.308 3.59729 40.3553 1.64467C38.4027 -0.307952 35.2369 -0.307952 33.2843 1.64467L1.46446 33.4645ZM136 32L5 32L5 42L136 42L136 32Z" fill="white"/>
</svg>
